STARTFONT 2.1
FONT -Bitstream-Terminal-Medium-R-Normal--18-140-100-100-C-110-DEC-DECtech
SIZE 14 100 100
FONTBOUNDINGBOX 11 20 0 -5
COMMENT $Xorg: tech14.bdf,v 1.3 2000/08/17 19:43:30 cpqbld Exp $
COMMENT 
COMMENT +
COMMENT  Copyright (c) 1987, 1994 Digital Equipment Corporation
COMMENT 
COMMENT  The name "Bitstream" is a registered trademark of Bitstream, Inc.
COMMENT  Permission to use this trademark is hereby granted only in association
COMMENT  with the images described in this file.
COMMENT 
COMMENT  The X Consortium, and any party obtaining a copy of these files from
COMMENT  the X Consortium, directly or indirectly, is granted, free of charge, a
COMMENT  full and unrestricted irrevocable, world-wide, paid up, royalty-free,
COMMENT  nonexclusive right and license to deal in this software and
COMMENT  documentation files (the "Software"), including without limitation the
COMMENT  rights to use, copy, modify, merge, publish, distribute, sublicense,
COMMENT  and/or sell copies of the Software, and to permit persons who receive
COMMENT  copies from any such party to do so.  This license includes without
COMMENT  limitation a license to do the foregoing actions under any patents of
COMMENT  the party supplying this software to the X Consortium.
COMMENT 
COMMENT  Digital Equipment Corporation make no representations about the
COMMENT  suitability of this software for any purpose.  It is provided "as
COMMENT  is" without express or implied warranty.
COMMENT -
STARTPROPERTIES 21
FOUNDRY "Bitstream"
FAMILY_NAME "Terminal"
WEIGHT_NAME "Medium"
SLANT "R"
SETWIDTH_NAME "Normal"
ADD_STYLE_NAME ""
PIXEL_SIZE 18
POINT_SIZE 140
RESOLUTION_X 100
RESOLUTION_Y 100
SPACING "C"
AVERAGE_WIDTH 110
CHARSET_REGISTRY "DEC"
CHARSET_ENCODING "DECtech"
CAP_HEIGHT 11
FONT_ASCENT 15
FONT_DESCENT 5
DEFAULT_CHAR 159
COPYRIGHT "Copyright (c) 1991 Digital Equipment Corporation. All Rights Reserved."
_DEC_PRODUCTINFO "DECterm Fonts V2.2, 11-Nov-1991"
FULL_NAME "Terminal"
ENDPROPERTIES
CHARS 182
STARTCHAR space
ENCODING 32
SWIDTH 565 0
DWIDTH 11 0
BBX 1 1 0 0
BITMAP
00
ENDCHAR
STARTCHAR exclam
ENCODING 33
SWIDTH 565 0
DWIDTH 11 0
BBX 4 11 4 0
BITMAP
60
60
60
60
60
60
60
00
60
F0
60
ENDCHAR
STARTCHAR quotedbl
ENCODING 34
SWIDTH 565 0
DWIDTH 11 0
BBX 6 5 3 8
BITMAP
CC
CC
CC
CC
CC
ENDCHAR
STARTCHAR numbersign
ENCODING 35
SWIDTH 565 0
DWIDTH 11 0
BBX 11 14 0 -3
BITMAP
1980
1980
1980
1980
1980
FFE0
1980
1980
FFE0
1980
1980
1980
1980
1980
ENDCHAR
STARTCHAR dollar
ENCODING 36
SWIDTH 565 0
DWIDTH 11 0
BBX 7 16 2 -3
BITMAP
10
10
7E
E6
C6
C0
E0
7C
0E
06
C6
CE
FC
10
10
10
ENDCHAR
STARTCHAR percent
ENCODING 37
SWIDTH 565 0
DWIDTH 11 0
BBX 9 11 1 0
BITMAP
7000
D800
8800
D800
7300
1C00
6700
0D80
0880
0D80
0700
ENDCHAR
STARTCHAR ampersand
ENCODING 38
SWIDTH 565 0
DWIDTH 11 0
BBX 7 11 2 0
BITMAP
34
6C
4C
60
20
76
D4
DC
CC
CC
76
ENDCHAR
STARTCHAR quoteright
ENCODING 39
SWIDTH 565 0
DWIDTH 11 0
BBX 4 5 4 8
BITMAP
70
60
60
C0
40
ENDCHAR
STARTCHAR parenleft
ENCODING 40
SWIDTH 565 0
DWIDTH 11 0
BBX 4 15 4 -3
BITMAP
10
20
60
40
C0
C0
C0
C0
C0
C0
C0
40
60
20
10
ENDCHAR
STARTCHAR parenright
ENCODING 41
SWIDTH 565 0
DWIDTH 11 0
BBX 4 15 4 -3
BITMAP
80
40
60
20
30
30
30
30
30
30
30
20
60
40
80
ENDCHAR
STARTCHAR asterisk
ENCODING 42
SWIDTH 565 0
DWIDTH 11 0
BBX 8 8 2 1
BITMAP
18
18
DB
7E
3C
3C
66
66
ENDCHAR
STARTCHAR plus
ENCODING 43
SWIDTH 565 0
DWIDTH 11 0
BBX 8 10 2 0
BITMAP
18
18
18
18
FF
FF
18
18
18
18
ENDCHAR
STARTCHAR comma
ENCODING 44
SWIDTH 565 0
DWIDTH 11 0
BBX 4 6 4 -3
BITMAP
70
70
60
60
C0
40
ENDCHAR
STARTCHAR minus
ENCODING 45
SWIDTH 565 0
DWIDTH 11 0
BBX 9 2 1 4
BITMAP
FF80
FF80
ENDCHAR
STARTCHAR period
ENCODING 46
SWIDTH 565 0
DWIDTH 11 0
BBX 4 3 4 0
BITMAP
60
F0
60
ENDCHAR
STARTCHAR slash
ENCODING 47
SWIDTH 565 0
DWIDTH 11 0
BBX 8 13 2 -1
BITMAP
03
02
06
04
0C
08
18
10
30
20
60
40
C0
ENDCHAR
STARTCHAR zero
ENCODING 48
SWIDTH 565 0
DWIDTH 11 0
BBX 7 11 2 0
BITMAP
38
6C
44
C6
C6
C6
C6
C6
44
6C
38
ENDCHAR
STARTCHAR one
ENCODING 49
SWIDTH 565 0
DWIDTH 11 0
BBX 6 11 3 0
BITMAP
30
70
B0
30
30
30
30
30
30
30
FC
ENDCHAR
STARTCHAR two
ENCODING 50
SWIDTH 565 0
DWIDTH 11 0
BBX 7 11 2 0
BITMAP
7C
CE
C6
06
06
0C
18
30
60
C6
FE
ENDCHAR
STARTCHAR three
ENCODING 51
SWIDTH 565 0
DWIDTH 11 0
BBX 7 11 2 0
BITMAP
7C
CE
06
06
0C
38
0C
06
06
C6
7C
ENDCHAR
STARTCHAR four
ENCODING 52
SWIDTH 565 0
DWIDTH 11 0
BBX 7 11 2 0
BITMAP
0C
1C
1C
2C
6C
4C
CC
FE
0C
0C
1E
ENDCHAR
STARTCHAR five
ENCODING 53
SWIDTH 565 0
DWIDTH 11 0
BBX 7 11 2 0
BITMAP
FC
C0
C0
C0
F8
CC
06
06
06
CC
78
ENDCHAR
STARTCHAR six
ENCODING 54
SWIDTH 565 0
DWIDTH 11 0
BBX 7 11 2 0
BITMAP
1C
20
60
40
D8
EC
C6
C6
C6
6C
38
ENDCHAR
STARTCHAR seven
ENCODING 55
SWIDTH 565 0
DWIDTH 11 0
BBX 7 11 2 0
BITMAP
FE
C6
06
0C
0C
08
18
18
10
30
30
ENDCHAR
STARTCHAR eight
ENCODING 56
SWIDTH 565 0
DWIDTH 11 0
BBX 7 11 2 0
BITMAP
38
6C
C6
C6
6C
38
6C
C6
C6
6C
38
ENDCHAR
STARTCHAR nine
ENCODING 57
SWIDTH 565 0
DWIDTH 11 0
BBX 7 11 2 0
BITMAP
38
6C
C6
C6
C6
6E
36
04
0C
18
70
ENDCHAR
STARTCHAR colon
ENCODING 58
SWIDTH 565 0
DWIDTH 11 0
BBX 4 9 4 0
BITMAP
60
F0
60
00
00
00
60
F0
60
ENDCHAR
STARTCHAR semicolon
ENCODING 59
SWIDTH 565 0
DWIDTH 11 0
BBX 5 12 3 -3
BITMAP
30
78
30
00
00
00
70
70
60
60
C0
40
ENDCHAR
STARTCHAR less
ENCODING 60
SWIDTH 565 0
DWIDTH 11 0
BBX 9 9 1 1
BITMAP
0180
0780
1E00
7800
E000
7800
1E00
0780
0180
ENDCHAR
STARTCHAR equal
ENCODING 61
SWIDTH 565 0
DWIDTH 11 0
BBX 8 6 2 2
BITMAP
FF
FF
00
00
FF
FF
ENDCHAR
STARTCHAR greater
ENCODING 62
SWIDTH 565 0
DWIDTH 11 0
BBX 9 9 1 1
BITMAP
C000
F000
3C00
0F00
0380
0F00
3C00
F000
C000
ENDCHAR
STARTCHAR question
ENCODING 63
SWIDTH 565 0
DWIDTH 11 0
BBX 8 11 2 0
BITMAP
7E
C3
03
03
0E
38
30
00
30
78
30
ENDCHAR
STARTCHAR at
ENCODING 64
SWIDTH 565 0
DWIDTH 11 0
BBX 10 14 1 -2
BITMAP
1E00
7300
6100
C180
C780
C980
D980
D980
D980
CFC0
C000
6000
7080
1F00
ENDCHAR
STARTCHAR A
ENCODING 65
SWIDTH 565 0
DWIDTH 11 0
BBX 11 11 0 0
BITMAP
0E00
0E00
1B00
1B00
1B00
3180
3180
3F80
60C0
60C0
F1E0
ENDCHAR
STARTCHAR B
ENCODING 66
SWIDTH 565 0
DWIDTH 11 0
BBX 9 11 1 0
BITMAP
FE00
6300
6300
6300
6200
7F00
6180
6180
6180
6180
FF00
ENDCHAR
STARTCHAR C
ENCODING 67
SWIDTH 565 0
DWIDTH 11 0
BBX 9 11 1 0
BITMAP
3E80
6380
C180
C180
C000
C000
C000
C000
C080
6180
3F00
ENDCHAR
STARTCHAR D
ENCODING 68
SWIDTH 565 0
DWIDTH 11 0
BBX 9 11 1 0
BITMAP
FE00
6300
6180
6180
6180
6180
6180
6180
6180
6300
FE00
ENDCHAR
STARTCHAR E
ENCODING 69
SWIDTH 565 0
DWIDTH 11 0
BBX 9 11 1 0
BITMAP
FF80
3080
3080
3200
3200
3E00
3200
3280
3080
3080
FF80
ENDCHAR
STARTCHAR F
ENCODING 70
SWIDTH 565 0
DWIDTH 11 0
BBX 9 11 1 0
BITMAP
FF80
3080
3080
3200
3200
3E00
3200
3200
3000
3000
FC00
ENDCHAR
STARTCHAR G
ENCODING 71
SWIDTH 565 0
DWIDTH 11 0
BBX 10 11 1 0
BITMAP
3E80
6380
C180
C180
C000
C000
C7C0
C180
C180
6180
3F00
ENDCHAR
STARTCHAR H
ENCODING 72
SWIDTH 565 0
DWIDTH 11 0
BBX 9 11 1 0
BITMAP
F780
6300
6300
6300
6300
7F00
6300
6300
6300
6300
F780
ENDCHAR
STARTCHAR I
ENCODING 73
SWIDTH 565 0
DWIDTH 11 0
BBX 8 11 2 0
BITMAP
FF
18
18
18
18
18
18
18
18
18
FF
ENDCHAR
STARTCHAR J
ENCODING 74
SWIDTH 565 0
DWIDTH 11 0
BBX 9 11 1 0
BITMAP
3F80
0600
0600
0600
0600
0600
8600
8600
8600
C600
7C00
ENDCHAR
STARTCHAR K
ENCODING 75
SWIDTH 565 0
DWIDTH 11 0
BBX 9 11 1 0
BITMAP
F780
6300
6600
6C00
7800
7C00
6600
6600
6300
6300
F380
ENDCHAR
STARTCHAR L
ENCODING 76
SWIDTH 565 0
DWIDTH 11 0
BBX 9 11 1 0
BITMAP
FC00
3000
3000
3000
3000
3000
3000
3080
3080
3080
FF80
ENDCHAR
STARTCHAR M
ENCODING 77
SWIDTH 565 0
DWIDTH 11 0
BBX 11 11 0 0
BITMAP
F1E0
71C0
6AC0
6AC0
6AC0
6AC0
64C0
64C0
60C0
60C0
F1E0
ENDCHAR
STARTCHAR N
ENCODING 78
SWIDTH 565 0
DWIDTH 11 0
BBX 10 11 1 0
BITMAP
E3C0
7180
7180
6980
6980
6580
6580
6380
6380
6180
F980
ENDCHAR
STARTCHAR O
ENCODING 79
SWIDTH 565 0
DWIDTH 11 0
BBX 9 11 1 0
BITMAP
3E00
6300
C180
C180
C180
C180
C180
C180
C180
6300
3E00
ENDCHAR
STARTCHAR P
ENCODING 80
SWIDTH 565 0
DWIDTH 11 0
BBX 9 11 1 0
BITMAP
FF00
3180
3180
3180
3180
3180
3F00
3000
3000
3000
FC00
ENDCHAR
STARTCHAR Q
ENCODING 81
SWIDTH 565 0
DWIDTH 11 0
BBX 10 14 1 -3
BITMAP
3E00
6300
C180
C180
C180
C180
C180
C180
C180
6300
3E00
1000
2EC0
3380
ENDCHAR
STARTCHAR R
ENCODING 82
SWIDTH 565 0
DWIDTH 11 0
BBX 10 11 1 0
BITMAP
FF00
6380
6180
6180
6300
7E00
6300
6300
6180
6180
F1C0
ENDCHAR
STARTCHAR S
ENCODING 83
SWIDTH 565 0
DWIDTH 11 0
BBX 8 11 2 0
BITMAP
3B
E7
C3
C0
E0
7E
07
03
C3
E7
DC
ENDCHAR
STARTCHAR T
ENCODING 84
SWIDTH 565 0
DWIDTH 11 0
BBX 10 11 1 0
BITMAP
FFC0
8C40
8C40
8C40
0C00
0C00
0C00
0C00
0C00
0C00
3F00
ENDCHAR
STARTCHAR U
ENCODING 85
SWIDTH 565 0
DWIDTH 11 0
BBX 10 11 1 0
BITMAP
F3C0
6180
6180
6180
6180
6180
6180
6180
6180
3300
1E00
ENDCHAR
STARTCHAR V
ENCODING 86
SWIDTH 565 0
DWIDTH 11 0
BBX 11 11 0 0
BITMAP
F1E0
60C0
60C0
3180
3180
3180
1B00
1B00
0A00
0E00
0400
ENDCHAR
STARTCHAR W
ENCODING 87
SWIDTH 565 0
DWIDTH 11 0
BBX 11 11 0 0
BITMAP
F1E0
60C0
60C0
64C0
64C0
6EC0
6AC0
2A80
3B80
3180
3180
ENDCHAR
STARTCHAR X
ENCODING 88
SWIDTH 565 0
DWIDTH 11 0
BBX 9 11 1 0
BITMAP
F780
6300
3600
3600
1C00
1C00
1C00
3600
3600
6300
F780
ENDCHAR
STARTCHAR Y
ENCODING 89
SWIDTH 565 0
DWIDTH 11 0
BBX 10 11 1 0
BITMAP
F3C0
6180
2100
3300
1200
1E00
0C00
0C00
0C00
0C00
3F00
ENDCHAR
STARTCHAR Z
ENCODING 90
SWIDTH 565 0
DWIDTH 11 0
BBX 8 11 2 0
BITMAP
FF
83
86
06
0C
0C
18
30
31
61
FF
ENDCHAR
STARTCHAR bracketleft
ENCODING 91
SWIDTH 565 0
DWIDTH 11 0
BBX 4 14 4 -2
BITMAP
F0
C0
C0
C0
C0
C0
C0
C0
C0
C0
C0
C0
C0
F0
ENDCHAR
STARTCHAR backslash
ENCODING 92
SWIDTH 565 0
DWIDTH 11 0
BBX 8 13 2 -1
BITMAP
C0
40
60
20
30
10
18
08
0C
04
06
02
03
ENDCHAR
STARTCHAR bracketright
ENCODING 93
SWIDTH 565 0
DWIDTH 11 0
BBX 4 14 3 -2
BITMAP
F0
30
30
30
30
30
30
30
30
30
30
30
30
F0
ENDCHAR
STARTCHAR asciicircum
ENCODING 94
SWIDTH 565 0
DWIDTH 11 0
BBX 7 4 2 5
BITMAP
10
38
6C
C6
ENDCHAR
STARTCHAR ldblank
ENCODING 95
SWIDTH 565 0
DWIDTH 11 0
BBX 1 1 0 0
BITMAP
00
ENDCHAR
STARTCHAR diamond
ENCODING 96
SWIDTH 565 0
DWIDTH 11 0
BBX 9 11 1 0
BITMAP
0800
1C00
3E00
3E00
7F00
FF80
7F00
3E00
3E00
1C00
0800
ENDCHAR
STARTCHAR checkerboard
ENCODING 97
SWIDTH 565 0
DWIDTH 11 0
BBX 11 20 0 -5
BITMAP
AAA0
5540
AAA0
5540
AAA0
5540
AAA0
5540
AAA0
5540
AAA0
5540
AAA0
5540
AAA0
5540
AAA0
5540
AAA0
5540
ENDCHAR
STARTCHAR HT
ENCODING 98
SWIDTH 565 0
DWIDTH 11 0
BBX 10 13 1 -1
BITMAP
CC00
CC00
FC00
CC00
CC00
CC00
0000
03C0
0180
0180
0180
0180
0180
ENDCHAR
STARTCHAR FF
ENCODING 99
SWIDTH 565 0
DWIDTH 11 0
BBX 10 13 1 -1
BITMAP
F800
C000
C000
F000
C000
C000
0000
07C0
0600
0600
0780
0600
0600
ENDCHAR
STARTCHAR CR
ENCODING 100
SWIDTH 565 0
DWIDTH 11 0
BBX 10 13 1 -1
BITMAP
7000
C800
C000
C000
C800
7000
0000
0780
0640
0640
0780
06C0
0640
ENDCHAR
STARTCHAR LF
ENCODING 101
SWIDTH 565 0
DWIDTH 11 0
BBX 10 13 1 -1
BITMAP
C000
C000
C000
C000
C000
F800
0000
07C0
0600
0600
0780
0600
0600
ENDCHAR
STARTCHAR degree
ENCODING 102
SWIDTH 565 0
DWIDTH 11 0
BBX 6 6 3 7
BITMAP
78
CC
84
84
CC
78
ENDCHAR
STARTCHAR plusminus
ENCODING 103
SWIDTH 565 0
DWIDTH 11 0
BBX 8 11 2 0
BITMAP
18
18
18
FF
FF
18
18
18
00
FF
FF
ENDCHAR
STARTCHAR NL
ENCODING 104
SWIDTH 565 0
DWIDTH 11 0
BBX 10 13 1 -1
BITMAP
CC00
CC00
EC00
DC00
CC00
CC00
0000
0300
0300
0300
0300
0300
03C0
ENDCHAR
STARTCHAR VT
ENCODING 105
SWIDTH 565 0
DWIDTH 11 0
BBX 10 13 1 -1
BITMAP
CC00
CC00
CC00
4800
7800
3000
0000
03C0
0180
0180
0180
0180
0180
ENDCHAR
STARTCHAR ldcornsqlr
ENCODING 106
SWIDTH 565 0
DWIDTH 11 0
BBX 7 11 0 4
BITMAP
06
06
06
06
06
06
06
06
06
FE
FE
ENDCHAR
STARTCHAR ldcornsqur
ENCODING 107
SWIDTH 565 0
DWIDTH 11 0
BBX 7 11 0 -5
BITMAP
FE
FE
06
06
06
06
06
06
06
06
06
ENDCHAR
STARTCHAR ldcornsqul
ENCODING 108
SWIDTH 565 0
DWIDTH 11 0
BBX 6 11 5 -5
BITMAP
FC
FC
C0
C0
C0
C0
C0
C0
C0
C0
C0
ENDCHAR
STARTCHAR ldcornsqll
ENCODING 109
SWIDTH 565 0
DWIDTH 11 0
BBX 6 11 5 4
BITMAP
C0
C0
C0
C0
C0
C0
C0
C0
C0
FC
FC
ENDCHAR
STARTCHAR ldcross
ENCODING 110
SWIDTH 565 0
DWIDTH 11 0
BBX 11 20 0 -5
BITMAP
0600
0600
0600
0600
0600
0600
0600
0600
0600
FFE0
FFE0
0600
0600
0600
0600
0600
0600
0600
0600
0600
ENDCHAR
STARTCHAR ldscan1
ENCODING 111
SWIDTH 565 0
DWIDTH 11 0
BBX 11 2 0 11
BITMAP
FFE0
FFE0
ENDCHAR
STARTCHAR ldscan3
ENCODING 112
SWIDTH 565 0
DWIDTH 11 0
BBX 11 2 0 7
BITMAP
FFE0
FFE0
ENDCHAR
STARTCHAR ldhorizontal
ENCODING 113
SWIDTH 565 0
DWIDTH 11 0
BBX 11 2 0 4
BITMAP
FFE0
FFE0
ENDCHAR
STARTCHAR ldscan7
ENCODING 114
SWIDTH 565 0
DWIDTH 11 0
BBX 11 2 0 -1
BITMAP
FFE0
FFE0
ENDCHAR
STARTCHAR ldscan9
ENCODING 115
SWIDTH 565 0
DWIDTH 11 0
BBX 11 2 0 -5
BITMAP
FFE0
FFE0
ENDCHAR
STARTCHAR ldteelft
ENCODING 116
SWIDTH 565 0
DWIDTH 11 0
BBX 6 20 5 -5
BITMAP
C0
C0
C0
C0
C0
C0
C0
C0
C0
FC
FC
C0
C0
C0
C0
C0
C0
C0
C0
C0
ENDCHAR
STARTCHAR ldteert
ENCODING 117
SWIDTH 565 0
DWIDTH 11 0
BBX 7 20 0 -5
BITMAP
06
06
06
06
06
06
06
06
06
FE
FE
06
06
06
06
06
06
06
06
06
ENDCHAR
STARTCHAR ldteebt
ENCODING 118
SWIDTH 565 0
DWIDTH 11 0
BBX 11 11 0 4
BITMAP
0600
0600
0600
0600
0600
0600
0600
0600
0600
FFE0
FFE0
ENDCHAR
STARTCHAR ldteetp
ENCODING 119
SWIDTH 565 0
DWIDTH 11 0
BBX 11 11 0 -5
BITMAP
FFE0
FFE0
0600
0600
0600
0600
0600
0600
0600
0600
0600
ENDCHAR
STARTCHAR ldvertical
ENCODING 120
SWIDTH 565 0
DWIDTH 11 0
BBX 2 20 5 -5
BITMAP
C0
C0
C0
C0
C0
C0
C0
C0
C0
C0
C0
C0
C0
C0
C0
C0
C0
C0
C0
C0
ENDCHAR
STARTCHAR lessequal
ENCODING 121
SWIDTH 565 0
DWIDTH 11 0
BBX 9 10 1 0
BITMAP
0780
3F80
F000
F000
3F80
0780
0000
0000
FF80
FF80
ENDCHAR
STARTCHAR greaterequal
ENCODING 122
SWIDTH 565 0
DWIDTH 11 0
BBX 9 10 1 0
BITMAP
F000
FE00
0780
0780
FE00
F000
0000
0000
FF80
FF80
ENDCHAR
STARTCHAR pi
ENCODING 123
SWIDTH 565 0
DWIDTH 11 0
BBX 10 9 1 0
BITMAP
FFC0
3180
3180
6300
6300
6300
C600
C600
C300
ENDCHAR
STARTCHAR notequal
ENCODING 124
SWIDTH 565 0
DWIDTH 11 0
BBX 9 8 1 1
BITMAP
0200
FF80
FF80
0800
1000
FF80
FF80
2000
ENDCHAR
STARTCHAR sterling
ENCODING 125
SWIDTH 565 0
DWIDTH 11 0
BBX 8 11 2 0
BITMAP
3F
63
61
60
30
FE
30
30
60
F9
8F
ENDCHAR
STARTCHAR periodcentered
ENCODING 126
SWIDTH 565 0
DWIDTH 11 0
BBX 4 4 4 3
BITMAP
60
F0
F0
60
ENDCHAR
STARTCHAR Error
ENCODING 159
SWIDTH 565 0
DWIDTH 11 0
BBX 10 18 0 -3
BITMAP
3F00
7F80
F380
E1C0
E1C0
E1C0
F000
7800
3C00
1C00
0E00
0E00
0E00
0000
0000
0E00
0E00
0E00
ENDCHAR
STARTCHAR space
ENCODING 160
SWIDTH 565 0
DWIDTH 11 0
BBX 1 1 0 0
BITMAP
00
ENDCHAR
STARTCHAR ldradicalbt
ENCODING 161
SWIDTH 565 0
DWIDTH 11 0
BBX 7 13 0 2
BITMAP
06
06
06
06
06
06
66
F6
BE
1E
0E
0E
06
ENDCHAR
STARTCHAR ldradicaltp
ENCODING 162
SWIDTH 565 0
DWIDTH 11 0
BBX 6 11 5 -5
BITMAP
FC
FC
C0
C0
C0
C0
C0
C0
C0
C0
C0
ENDCHAR
STARTCHAR ldhorizontal
ENCODING 163
SWIDTH 565 0
DWIDTH 11 0
BBX 11 2 0 4
BITMAP
FFE0
FFE0
ENDCHAR
STARTCHAR ldintegraltp
ENCODING 164
SWIDTH 565 0
DWIDTH 11 0
BBX 6 19 5 -5
BITMAP
3C
7C
C0
C0
C0
C0
C0
C0
C0
C0
C0
C0
C0
C0
C0
C0
C0
C0
C0
ENDCHAR
STARTCHAR ldintegralbt
ENCODING 165
SWIDTH 565 0
DWIDTH 11 0
BBX 6 18 1 -3
BITMAP
0C
0C
0C
0C
0C
0C
0C
0C
0C
0C
0C
0C
0C
0C
0C
0C
F8
F0
ENDCHAR
STARTCHAR ldvertical
ENCODING 166
SWIDTH 565 0
DWIDTH 11 0
BBX 2 20 5 -5
BITMAP
C0
C0
C0
C0
C0
C0
C0
C0
C0
C0
C0
C0
C0
C0
C0
C0
C0
C0
C0
C0
ENDCHAR
STARTCHAR ldbracketlfttp
ENCODING 167
SWIDTH 565 0
DWIDTH 11 0
BBX 4 18 5 -5
BITMAP
F0
C0
C0
C0
C0
C0
C0
C0
C0
C0
C0
C0
C0
C0
C0
C0
C0
C0
ENDCHAR
STARTCHAR ldbracketlftbt
ENCODING 168
SWIDTH 565 0
DWIDTH 11 0
BBX 4 18 5 -3
BITMAP
C0
C0
C0
C0
C0
C0
C0
C0
C0
C0
C0
C0
C0
C0
C0
C0
C0
F0
ENDCHAR
STARTCHAR ldbracketrttp
ENCODING 169
SWIDTH 565 0
DWIDTH 11 0
BBX 4 18 3 -5
BITMAP
F0
30
30
30
30
30
30
30
30
30
30
30
30
30
30
30
30
30
ENDCHAR
STARTCHAR ldbracketrtbt
ENCODING 170
SWIDTH 565 0
DWIDTH 11 0
BBX 4 18 3 -3
BITMAP
30
30
30
30
30
30
30
30
30
30
30
30
30
30
30
30
30
F0
ENDCHAR
STARTCHAR ldbracelfttp
ENCODING 171
SWIDTH 565 0
DWIDTH 11 0
BBX 4 18 5 -5
BITMAP
30
60
40
C0
C0
C0
C0
C0
C0
C0
C0
C0
C0
C0
C0
C0
C0
C0
ENDCHAR
STARTCHAR ldbracelftbt
ENCODING 172
SWIDTH 565 0
DWIDTH 11 0
BBX 4 18 5 -3
BITMAP
C0
C0
C0
C0
C0
C0
C0
C0
C0
C0
C0
C0
C0
C0
C0
40
60
30
ENDCHAR
STARTCHAR ldbracerttp
ENCODING 173
SWIDTH 565 0
DWIDTH 11 0
BBX 4 18 3 -5
BITMAP
C0
60
20
30
30
30
30
30
30
30
30
30
30
30
30
30
30
30
ENDCHAR
STARTCHAR ldbracertbt
ENCODING 174
SWIDTH 565 0
DWIDTH 11 0
BBX 4 18 3 -3
BITMAP
30
30
30
30
30
30
30
30
30
30
30
30
30
30
30
20
60
C0
ENDCHAR
STARTCHAR ldbracelftmid
ENCODING 175
SWIDTH 565 0
DWIDTH 11 0
BBX 4 20 3 -5
BITMAP
30
30
30
30
30
30
30
30
30
60
C0
60
30
30
30
30
30
30
30
30
ENDCHAR
STARTCHAR ldbracertmid
ENCODING 176
SWIDTH 565 0
DWIDTH 11 0
BBX 4 20 5 -5
BITMAP
C0
C0
C0
C0
C0
C0
C0
C0
C0
60
30
60
C0
C0
C0
C0
C0
C0
C0
C0
ENDCHAR
STARTCHAR ldsigmalfttp
ENCODING 177
SWIDTH 565 0
DWIDTH 11 0
BBX 8 11 3 -5
BITMAP
FF
FF
60
30
30
18
0C
0C
06
03
03
ENDCHAR
STARTCHAR ldsigmalftbt
ENCODING 178
SWIDTH 565 0
DWIDTH 11 0
BBX 7 11 4 4
BITMAP
06
06
0C
0C
18
18
30
30
60
FE
FE
ENDCHAR
STARTCHAR ldbackslash
ENCODING 179
SWIDTH 565 0
DWIDTH 11 0
BBX 11 20 0 -5
BITMAP
8000
C000
C000
6000
6000
3000
3000
1800
0C00
0C00
0600
0600
0300
0300
0180
00C0
00C0
0060
0060
0020
ENDCHAR
STARTCHAR ldslash
ENCODING 180
SWIDTH 565 0
DWIDTH 11 0
BBX 11 20 0 -5
BITMAP
0020
0060
0060
00C0
00C0
0180
0180
0300
0600
0600
0C00
0C00
1800
1800
3000
6000
6000
C000
C000
8000
ENDCHAR
STARTCHAR ldsigmarttp
ENCODING 181
SWIDTH 565 0
DWIDTH 11 0
BBX 11 5 0 1
BITMAP
FFE0
FFE0
0060
0060
0060
ENDCHAR
STARTCHAR ldsigmartbt
ENCODING 182
SWIDTH 565 0
DWIDTH 11 0
BBX 11 5 0 4
BITMAP
0060
0060
0060
FFE0
FFE0
ENDCHAR
STARTCHAR ldsigmamid
ENCODING 183
SWIDTH 565 0
DWIDTH 11 0
BBX 6 20 0 -5
BITMAP
80
C0
C0
60
60
30
30
18
18
0C
0C
0C
18
18
30
60
60
C0
C0
80
ENDCHAR
STARTCHAR lessequal
ENCODING 188
SWIDTH 565 0
DWIDTH 11 0
BBX 9 10 1 0
BITMAP
0780
3F80
F000
F000
3F80
0780
0000
0000
FF80
FF80
ENDCHAR
STARTCHAR notequal
ENCODING 189
SWIDTH 565 0
DWIDTH 11 0
BBX 9 8 1 1
BITMAP
0200
FF80
FF80
0800
1000
FF80
FF80
2000
ENDCHAR
STARTCHAR greaterequal
ENCODING 190
SWIDTH 565 0
DWIDTH 11 0
BBX 9 10 1 0
BITMAP
F000
FE00
0780
0780
FE00
F000
0000
0000
FF80
FF80
ENDCHAR
STARTCHAR integral
ENCODING 191
SWIDTH 565 0
DWIDTH 11 0
BBX 10 18 1 -4
BITMAP
0380
07C0
0CC0
0C00
0C00
0C00
0C00
0C00
0C00
0C00
0C00
0C00
0C00
0C00
0C00
CC00
F800
7000
ENDCHAR
STARTCHAR therefore
ENCODING 192
SWIDTH 565 0
DWIDTH 11 0
BBX 10 9 1 0
BITMAP
0C00
1E00
0C00
0000
0000
0000
6180
F3C0
6180
ENDCHAR
STARTCHAR proportional
ENCODING 193
SWIDTH 565 0
DWIDTH 11 0
BBX 10 7 1 2
BITMAP
71C0
FBC0
CE00
8C00
CE00
FBC0
71C0
ENDCHAR
STARTCHAR infinity
ENCODING 194
SWIDTH 565 0
DWIDTH 11 0
BBX 11 7 0 2
BITMAP
71C0
FBE0
CE60
8420
CE60
FBE0
71C0
ENDCHAR
STARTCHAR divide
ENCODING 195
SWIDTH 565 0
DWIDTH 11 0
BBX 8 8 2 1
BITMAP
18
18
00
FF
FF
00
18
18
ENDCHAR
STARTCHAR Delta
ENCODING 196
SWIDTH 565 0
DWIDTH 11 0
BBX 11 11 0 0
BITMAP
0400
0E00
0E00
1B00
1B00
3180
3180
60C0
60C0
C060
FFE0
ENDCHAR
STARTCHAR gradient
ENCODING 197
SWIDTH 565 0
DWIDTH 11 0
BBX 11 11 0 0
BITMAP
FFE0
C060
60C0
60C0
3180
3180
1B00
1B00
0E00
0E00
0400
ENDCHAR
STARTCHAR Phi
ENCODING 198
SWIDTH 565 0
DWIDTH 11 0
BBX 10 11 1 0
BITMAP
3F00
0C00
3F00
6D80
CCC0
CCC0
CCC0
6D80
3F00
0C00
3F00
ENDCHAR
STARTCHAR Gamma
ENCODING 199
SWIDTH 565 0
DWIDTH 11 0
BBX 9 11 1 0
BITMAP
FF80
3180
3180
3180
3000
3000
3000
3000
3000
3000
FE00
ENDCHAR
STARTCHAR similar
ENCODING 200
SWIDTH 565 0
DWIDTH 11 0
BBX 9 3 1 4
BITMAP
7980
FF80
CF00
ENDCHAR
STARTCHAR approxequal
ENCODING 201
SWIDTH 565 0
DWIDTH 11 0
BBX 9 7 1 2
BITMAP
7180
FF80
CF00
0000
0000
FF80
FF80
ENDCHAR
STARTCHAR Theta
ENCODING 202
SWIDTH 565 0
DWIDTH 11 0
BBX 9 11 1 0
BITMAP
3E00
6300
C180
C180
D580
DD80
D580
C180
C180
6300
3E00
ENDCHAR
STARTCHAR multiply
ENCODING 203
SWIDTH 565 0
DWIDTH 11 0
BBX 7 8 2 1
BITMAP
82
C6
6C
38
38
6C
C6
82
ENDCHAR
STARTCHAR Lambda
ENCODING 204
SWIDTH 565 0
DWIDTH 11 0
BBX 11 11 0 0
BITMAP
0400
0E00
0E00
1B00
1B00
3180
3180
60C0
60C0
C060
F1E0
ENDCHAR
STARTCHAR arrowdblboth
ENCODING 205
SWIDTH 565 0
DWIDTH 11 0
BBX 11 9 0 1
BITMAP
1100
3180
7FC0
FFE0
C060
FFE0
7FC0
3180
1100
ENDCHAR
STARTCHAR arrowdblright
ENCODING 206
SWIDTH 565 0
DWIDTH 11 0
BBX 11 11 0 0
BITMAP
0200
0300
0180
FFC0
FFE0
0060
FFE0
FFC0
0180
0300
0200
ENDCHAR
STARTCHAR equivalence
ENCODING 207
SWIDTH 565 0
DWIDTH 11 0
BBX 8 8 2 1
BITMAP
FF
FF
00
FF
FF
00
FF
FF
ENDCHAR
STARTCHAR Pi
ENCODING 208
SWIDTH 565 0
DWIDTH 11 0
BBX 9 11 1 0
BITMAP
FF80
6300
6300
6300
6300
6300
6300
6300
6300
6300
F780
ENDCHAR
STARTCHAR Psi
ENCODING 209
SWIDTH 565 0
DWIDTH 11 0
BBX 10 11 1 0
BITMAP
3F00
0C00
CCC0
CCC0
CCC0
CCC0
6D80
3F00
0C00
0C00
7F80
ENDCHAR
STARTCHAR Sigma
ENCODING 211
SWIDTH 565 0
DWIDTH 11 0
BBX 9 11 1 0
BITMAP
FF80
6180
3180
1980
0C00
0400
0C00
1980
3180
6180
FF80
ENDCHAR
STARTCHAR radical
ENCODING 214
SWIDTH 565 0
DWIDTH 11 0
BBX 10 16 1 -2
BITMAP
00C0
00C0
0180
0180
0180
0300
C300
C300
6600
6600
6600
3C00
3C00
1800
1800
1800
ENDCHAR
STARTCHAR Omega
ENCODING 215
SWIDTH 565 0
DWIDTH 11 0
BBX 9 11 1 0
BITMAP
3E00
6300
C180
C180
C180
C180
C180
6300
2200
A280
E380
ENDCHAR
STARTCHAR Xi
ENCODING 216
SWIDTH 565 0
DWIDTH 11 0
BBX 9 11 1 0
BITMAP
FF80
C180
C180
0000
6300
7F00
6300
0000
C180
C180
FF80
ENDCHAR
STARTCHAR Upsilon1
ENCODING 217
SWIDTH 565 0
DWIDTH 11 0
BBX 10 11 1 0
BITMAP
C0C0
6180
3300
3300
1E00
1E00
0C00
0C00
0C00
0C00
3F00
ENDCHAR
STARTCHAR propersubset
ENCODING 218
SWIDTH 565 0
DWIDTH 11 0
BBX 9 11 1 0
BITMAP
1F80
7F80
6000
C000
C000
C000
C000
C000
6000
7F80
1F80
ENDCHAR
STARTCHAR propersuperset
ENCODING 219
SWIDTH 565 0
DWIDTH 11 0
BBX 9 11 1 0
BITMAP
FC00
FF00
0300
0180
0180
0180
0180
0180
0300
FF00
FC00
ENDCHAR
STARTCHAR intersection
ENCODING 220
SWIDTH 565 0
DWIDTH 11 0
BBX 9 11 1 0
BITMAP
3E00
7F00
C180
C180
C180
C180
C180
C180
C180
C180
C180
ENDCHAR
STARTCHAR union
ENCODING 221
SWIDTH 565 0
DWIDTH 11 0
BBX 9 11 1 0
BITMAP
C180
C180
C180
C180
C180
C180
C180
C180
C180
7F00
3E00
ENDCHAR
STARTCHAR logicaland
ENCODING 222
SWIDTH 565 0
DWIDTH 11 0
BBX 9 9 1 0
BITMAP
0800
1C00
1C00
3600
3600
6300
6300
C180
C180
ENDCHAR
STARTCHAR logicalor
ENCODING 223
SWIDTH 565 0
DWIDTH 11 0
BBX 9 9 1 0
BITMAP
C180
C180
6300
6300
3600
3600
1C00
1C00
0800
ENDCHAR
STARTCHAR logicalnot
ENCODING 224
SWIDTH 565 0
DWIDTH 11 0
BBX 8 5 2 2
BITMAP
FF
FF
03
03
03
ENDCHAR
STARTCHAR alpha
ENCODING 225
SWIDTH 565 0
DWIDTH 11 0
BBX 10 9 1 0
BITMAP
1E40
63C0
6180
C180
C180
C300
C300
6740
3D80
ENDCHAR
STARTCHAR beta
ENCODING 226
SWIDTH 565 0
DWIDTH 11 0
BBX 11 16 0 -4
BITMAP
07C0
0C60
0860
1860
18C0
1B80
30C0
3060
3060
3060
78C0
6F80
6000
C000
C000
C000
ENDCHAR
STARTCHAR chi
ENCODING 227
SWIDTH 565 0
DWIDTH 11 0
BBX 11 13 0 -4
BITMAP
3820
1860
0CC0
0D80
0D00
0600
0600
0E00
1E00
3300
6300
C300
83C0
ENDCHAR
STARTCHAR delta
ENCODING 228
SWIDTH 565 0
DWIDTH 11 0
BBX 8 12 2 0
BITMAP
1F
30
30
18
1E
66
C3
C3
C3
C3
66
3C
ENDCHAR
STARTCHAR epsilon
ENCODING 229
SWIDTH 565 0
DWIDTH 11 0
BBX 8 9 2 0
BITMAP
1F
78
60
C0
FE
C0
C0
E0
7F
ENDCHAR
STARTCHAR phi
ENCODING 230
SWIDTH 565 0
DWIDTH 11 0
BBX 10 16 1 -4
BITMAP
0200
0200
0600
1F00
7580
64C0
CCC0
CCC0
CCC0
C980
6B80
3E00
1800
1800
1000
1000
ENDCHAR
STARTCHAR gamma
ENCODING 231
SWIDTH 565 0
DWIDTH 11 0
BBX 10 13 1 -4
BITMAP
E0C0
6180
6100
3300
3600
1C00
1C00
1800
1800
3000
2000
6000
4000
ENDCHAR
STARTCHAR eta
ENCODING 232
SWIDTH 565 0
DWIDTH 11 0
BBX 9 13 1 -4
BITMAP
EF00
3180
3180
6180
6180
6300
C300
C300
C300
0600
0600
0600
0600
ENDCHAR
STARTCHAR iota
ENCODING 233
SWIDTH 565 0
DWIDTH 11 0
BBX 7 9 2 0
BITMAP
F0
30
30
30
60
60
60
66
3C
ENDCHAR
STARTCHAR theta
ENCODING 234
SWIDTH 565 0
DWIDTH 11 0
BBX 9 12 1 0
BITMAP
0E00
3B00
2180
6180
C180
FF80
C180
C100
C300
C200
6E00
3800
ENDCHAR
STARTCHAR kappa
ENCODING 235
SWIDTH 565 0
DWIDTH 11 0
BBX 9 9 1 0
BITMAP
E180
6300
6600
6C00
7800
CC00
C400
C600
C380
ENDCHAR
STARTCHAR lambda
ENCODING 236
SWIDTH 565 0
DWIDTH 11 0
BBX 11 12 0 0
BITMAP
3800
0C00
0C00
0600
0E00
0E00
1B00
1300
3300
2180
6180
C1E0
ENDCHAR
STARTCHAR nu
ENCODING 238
SWIDTH 565 0
DWIDTH 11 0
BBX 9 9 1 0
BITMAP
F180
3180
3180
3180
3100
3300
3600
3C00
3000
ENDCHAR
STARTCHAR partialdiff
ENCODING 239
SWIDTH 565 0
DWIDTH 11 0
BBX 8 11 2 0
BITMAP
78
0E
06
03
3B
67
C3
C3
C3
66
3C
ENDCHAR
STARTCHAR pi
ENCODING 240
SWIDTH 565 0
DWIDTH 11 0
BBX 10 9 1 0
BITMAP
FFC0
3180
3180
6300
6300
6300
C600
C600
C300
ENDCHAR
STARTCHAR psi
ENCODING 241
SWIDTH 565 0
DWIDTH 11 0
BBX 10 16 1 -4
BITMAP
0200
0200
0600
E6C0
66C0
64C0
CCC0
CCC0
CD80
8980
DB00
7E00
1800
1800
1000
1000
ENDCHAR
STARTCHAR rho
ENCODING 242
SWIDTH 565 0
DWIDTH 11 0
BBX 10 13 1 -4
BITMAP
1F00
3180
60C0
60C0
60C0
60C0
60C0
7180
DF00
C000
C000
C000
C000
ENDCHAR
STARTCHAR sigma
ENCODING 243
SWIDTH 565 0
DWIDTH 11 0
BBX 11 9 0 0
BITMAP
1FE0
7180
60C0
C0C0
C0C0
C0C0
C180
6380
3E00
ENDCHAR
STARTCHAR tau
ENCODING 244
SWIDTH 565 0
DWIDTH 11 0
BBX 9 9 1 0
BITMAP
FF80
1800
1800
1800
3000
3000
3000
3180
1F00
ENDCHAR
STARTCHAR florin
ENCODING 246
SWIDTH 565 0
DWIDTH 11 0
BBX 10 16 1 -3
BITMAP
01C0
0300
0300
0600
0600
1F80
0600
0600
0C00
0C00
0C00
0C00
1800
1800
3000
E000
ENDCHAR
STARTCHAR omega
ENCODING 247
SWIDTH 565 0
DWIDTH 11 0
BBX 10 9 1 0
BITMAP
60C0
60C0
64C0
C4C0
CCC0
CCC0
CCC0
DD80
7700
ENDCHAR
STARTCHAR xi
ENCODING 248
SWIDTH 565 0
DWIDTH 11 0
BBX 9 16 1 -4
BITMAP
7F80
1800
3000
3000
3000
1E00
7000
E000
C000
C000
C000
7E00
0300
0300
0700
0600
ENDCHAR
STARTCHAR upsilon
ENCODING 249
SWIDTH 565 0
DWIDTH 11 0
BBX 9 9 1 0
BITMAP
F180
6180
C180
C180
C180
C100
C300
6600
3C00
ENDCHAR
STARTCHAR zeta
ENCODING 250
SWIDTH 565 0
DWIDTH 11 0
BBX 9 16 1 -4
BITMAP
7F80
0600
0C00
1800
3000
7000
6000
C000
C000
C000
6000
3F00
0180
0180
0380
0300
ENDCHAR
STARTCHAR arrowleft
ENCODING 251
SWIDTH 565 0
DWIDTH 11 0
BBX 11 8 0 1
BITMAP
1800
3000
6000
FFE0
FFE0
6000
3000
1800
ENDCHAR
STARTCHAR arrowup
ENCODING 252
SWIDTH 565 0
DWIDTH 11 0
BBX 8 15 2 -2
BITMAP
18
3C
7E
DB
18
18
18
18
18
18
18
18
18
18
18
ENDCHAR
STARTCHAR arrowright
ENCODING 253
SWIDTH 565 0
DWIDTH 11 0
BBX 11 8 0 1
BITMAP
0300
0180
00C0
FFE0
FFE0
00C0
0180
0300
ENDCHAR
STARTCHAR arrowdown
ENCODING 254
SWIDTH 565 0
DWIDTH 11 0
BBX 8 15 2 -3
BITMAP
18
18
18
18
18
18
18
18
18
18
18
DB
7E
3C
18
ENDCHAR
ENDFONT
